<svg width="20" height="19" viewBox="0 0 20 19" fill="none" xmlns="http://www.w3.org/2000/svg">
<path d="M19.6962 3.75124C19.377 2.84067 18.8165 2.01925 18.0751 1.37577C17.3331 0.731704 16.4406 0.2926 15.4941 0.105973C15.1375 0.035651 14.7709 0 14.4044 0C13.335 0 12.295 0.302381 11.3968 0.874472C10.8561 1.21887 10.3811 1.65083 9.98978 2.15031C9.5986 1.65179 9.12393 1.22065 8.58377 0.876922C7.68599 0.305668 6.64668 0.00371619 5.57815 0.00371619C5.57809 0.00371619 5.57817 0.00371619 5.57813 0.00371619C4.68779 0.00371619 3.79421 0.223626 2.99423 0.639616C2.19484 1.0553 1.50155 1.6601 0.989365 2.38864C0.464565 3.13509 0.144891 3.97093 0.0392038 4.87292C-0.0533335 5.66286 0.0181318 6.51085 0.25166 7.39333C0.714265 9.14148 1.7382 10.736 2.51572 11.7658C4.20628 14.0049 6.53076 16.0373 9.62198 17.9793L9.99125 18.2112L10.3605 17.9793C14.1629 15.5906 16.8168 13.0688 18.4741 10.2695C19.4272 8.65961 19.9237 7.2254 19.992 5.88494C20.0301 5.13788 19.9306 4.42 19.6962 3.75124ZM9.99129 16.5687C7.22961 14.7903 5.14395 12.9426 3.62382 10.9292C2.92127 9.99867 1.99884 8.5683 1.59392 7.03814C1.40515 6.32478 1.34604 5.65067 1.41824 5.0345C1.49677 4.36427 1.7346 3.74277 2.12519 3.18722C2.50996 2.63993 3.03198 2.18497 3.63478 1.87152C4.23781 1.55795 4.90981 1.39221 5.57815 1.39221C6.38217 1.39221 7.16374 1.61912 7.83833 2.04838C8.49589 2.4668 9.02453 3.05705 9.36703 3.75531L9.99101 5.02723L10.6139 3.75478C10.9561 3.05568 11.4847 2.46466 12.1427 2.04563C12.8176 1.61573 13.5997 1.38851 14.4044 1.38851C14.6809 1.38851 14.9572 1.41534 15.2255 1.46825C15.9349 1.60812 16.6055 1.93874 17.165 2.42437C17.7243 2.90981 18.1464 3.52745 18.3858 4.21052C18.5604 4.70843 18.6342 5.24802 18.6053 5.81425C18.5487 6.9246 18.115 8.15056 17.2793 9.56216C15.7905 12.0768 13.404 14.3718 9.99129 16.5687Z" fill="black"/>
</svg>
